<svg width="25" height="24" viewBox="0 0 25 24" fill="none" xmlns="http://www.w3.org/2000/svg">
<path d="M9.49945 17.7485C9.08945 17.7485 8.74945 17.4085 8.74945 16.9985V12.8085L8.02945 13.5285C7.73945 13.8185 7.25945 13.8185 6.96945 13.5285C6.67945 13.2385 6.67945 12.7585 6.96945 12.4685L8.96945 10.4685C9.17945 10.2585 9.50945 10.1885 9.78945 10.3085C10.0695 10.4185 10.2495 10.6985 10.2495 10.9985V16.9985C10.2495 17.4085 9.90945 17.7485 9.49945 17.7485Z" fill="#E5C1C4"/>
<path d="M11.4995 13.7514C11.3095 13.7514 11.1195 13.6814 10.9695 13.5314L8.96945 11.5314C8.67945 11.2414 8.67945 10.7614 8.96945 10.4714C9.25945 10.1814 9.73945 10.1814 10.0295 10.4714L12.0295 12.4714C12.3195 12.7614 12.3195 13.2414 12.0295 13.5314C11.8795 13.6814 11.6895 13.7514 11.4995 13.7514Z" fill="#E5C1C4"/>
<path d="M15.5 22.75H9.5C4.07 22.75 1.75 20.43 1.75 15V9C1.75 3.57 4.07 1.25 9.5 1.25H14.5C14.91 1.25 15.25 1.59 15.25 2C15.25 2.41 14.91 2.75 14.5 2.75H9.5C4.89 2.75 3.25 4.39 3.25 9V15C3.25 19.61 4.89 21.25 9.5 21.25H15.5C20.11 21.25 21.75 19.61 21.75 15V10C21.75 9.59 22.09 9.25 22.5 9.25C22.91 9.25 23.25 9.59 23.25 10V15C23.25 20.43 20.93 22.75 15.5 22.75Z" fill="#E5C1C4"/>
<path d="M22.5 10.7485H18.5C15.08 10.7485 13.75 9.41852 13.75 5.99852V1.99852C13.75 1.69852 13.93 1.41852 14.21 1.30852C14.49 1.18852 14.81 1.25852 15.03 1.46852L23.03 9.46852C23.24 9.67852 23.31 10.0085 23.19 10.2885C23.07 10.5685 22.8 10.7485 22.5 10.7485ZM15.25 3.80852V5.99852C15.25 8.57852 15.92 9.24852 18.5 9.24852H20.69L15.25 3.80852Z" fill="#E5C1C4"/>
</svg>
