<svg width="24" height="24" viewBox="0 0 24 24" fill="none" xmlns="http://www.w3.org/2000/svg">
<path d="M17.44 15.3675C17.25 15.3675 17.06 15.2975 16.91 15.1475C16.62 14.8575 16.62 14.3775 16.91 14.0875L18.94 12.0575L16.91 10.0275C16.62 9.7375 16.62 9.2575 16.91 8.9675C17.2 8.6775 17.68 8.6775 17.97 8.9675L20.53 11.5275C20.82 11.8175 20.82 12.2975 20.53 12.5875L17.97 15.1475C17.82 15.2975 17.63 15.3675 17.44 15.3675Z" fill="#434343"/>
<path d="M19.93 12.8125H9.76001C9.35001 12.8125 9.01001 12.4725 9.01001 12.0625C9.01001 11.6525 9.35001 11.3125 9.76001 11.3125H19.93C20.34 11.3125 20.68 11.6525 20.68 12.0625C20.68 12.4725 20.34 12.8125 19.93 12.8125Z" fill="#434343"/>
<path d="M11.76 20.75C6.61001 20.75 3.01001 17.15 3.01001 12C3.01001 6.85 6.61001 3.25 11.76 3.25C12.17 3.25 12.51 3.59 12.51 4C12.51 4.41 12.17 4.75 11.76 4.75C7.49001 4.75 4.51001 7.73 4.51001 12C4.51001 16.27 7.49001 19.25 11.76 19.25C12.17 19.25 12.51 19.59 12.51 20C12.51 20.41 12.17 20.75 11.76 20.75Z" fill="#434343"/>
</svg>
