<svg width="24" height="24" viewBox="0 0 24 24" fill="none" xmlns="http://www.w3.org/2000/svg">
<path d="M9 10.75C7.48 10.75 6.25 9.52 6.25 8C6.25 6.48 7.48 5.25 9 5.25C10.52 5.25 11.75 6.48 11.75 8C11.75 9.52 10.52 10.75 9 10.75ZM9 6.75C8.31 6.75 7.75 7.31 7.75 8C7.75 8.69 8.31 9.25 9 9.25C9.69 9.25 10.25 8.69 10.25 8C10.25 7.31 9.69 6.75 9 6.75Z" fill="#434343"/>
<path d="M15 22.75H9C3.57 22.75 1.25 20.43 1.25 15V9C1.25 3.57 3.57 1.25 9 1.25H12C12.41 1.25 12.75 1.59 12.75 2C12.75 2.41 12.41 2.75 12 2.75H9C4.39 2.75 2.75 4.39 2.75 9V15C2.75 19.61 4.39 21.25 9 21.25H15C19.61 21.25 21.25 19.61 21.25 15V11C21.25 10.59 21.59 10.25 22 10.25C22.41 10.25 22.75 10.59 22.75 11V15C22.75 20.43 20.43 22.75 15 22.75Z" fill="#434343"/>
<path d="M18.94 8.35848C18.07 8.35848 16.03 7.28848 15.4 5.33848C14.97 3.98848 15.47 2.21848 17.03 1.71848C17.69 1.50848 18.38 1.59848 18.93 1.93848C19.47 1.59848 20.18 1.49848 20.85 1.71848C22.41 2.21848 22.91 3.98848 22.48 5.33848C21.85 7.32848 19.71 8.35848 18.94 8.35848ZM16.83 4.87848C17.26 6.20848 18.7 6.82848 18.96 6.85848C19.25 6.82848 20.66 6.12848 21.05 4.87848C21.26 4.20848 21.05 3.35848 20.39 3.13848C20.11 3.04848 19.74 3.09848 19.57 3.35848C19.43 3.56848 19.2 3.69848 18.96 3.69848C18.73 3.69848 18.48 3.58848 18.34 3.38848C18.13 3.09848 17.76 3.05848 17.5 3.13848C16.83 3.35848 16.62 4.20848 16.83 4.87848Z" fill="#434343"/>
<path d="M2.67002 19.7025C2.43002 19.7025 2.19002 19.5825 2.05002 19.3725C1.82002 19.0325 1.91002 18.5625 2.26002 18.3325L7.19002 15.0225C8.27002 14.2925 9.76002 14.3825 10.74 15.2125L11.07 15.5025C11.57 15.9325 12.42 15.9325 12.91 15.5025L17.07 11.9325C18.13 11.0225 19.8 11.0225 20.87 11.9325L22.5 13.3325C22.81 13.6025 22.85 14.0725 22.58 14.3925C22.31 14.7025 21.84 14.7425 21.52 14.4725L19.89 13.0725C19.39 12.6425 18.54 12.6425 18.04 13.0725L13.88 16.6425C12.82 17.5525 11.15 17.5525 10.08 16.6425L9.75002 16.3525C9.29002 15.9625 8.53002 15.9225 8.02002 16.2725L3.09002 19.5825C2.96002 19.6625 2.81002 19.7025 2.67002 19.7025Z" fill="#434343"/>
</svg>
