<svg width="135" height="37" viewBox="0 0 135 37" fill="none" xmlns="http://www.w3.org/2000/svg">
<path d="M122.557 11.066C124.283 12.3713 125.51 13.6101 126.24 14.7826C126.993 15.9329 127.369 17.1828 127.369 18.5323C127.369 20.0809 126.993 21.5631 126.24 22.9789C125.488 24.3947 124.371 25.4566 122.889 26.1645C122.026 26.5627 121.141 26.8282 120.234 26.9609C119.349 27.0936 118.354 27.16 117.248 27.16C117.137 27.16 117.027 26.9056 116.916 26.3968C116.805 25.8658 116.75 25.1247 116.75 24.1735C116.75 22.6692 116.883 21.6294 117.148 21.0542C117.392 20.4791 117.646 20.1915 117.911 20.1915C119.283 20.1915 120.367 20.0809 121.163 19.8596C121.982 19.6384 122.391 19.3619 122.391 19.0301C122.391 18.6097 121.971 17.9461 121.13 17.0391C120.29 16.132 118.829 14.9706 116.75 13.5548L117.911 7.58179L134.005 0.613281L135.001 5.92262L122.557 11.066Z" fill="#A72F3B"/>
<path d="M117.241 27.16C114.808 27.16 112.894 26.5074 111.5 25.2022C110.107 23.8748 109.365 21.8175 109.277 19.0301L108.613 1.11103L114.254 0.613281C114.232 2.73702 114.199 5.54654 114.155 9.04186C114.133 12.5151 114.111 14.6277 114.089 15.3799C114.089 17.0833 114.376 18.3111 114.951 19.0632C115.549 19.8154 116.533 20.1915 117.905 20.1915L117.241 27.16Z" fill="black"/>
<path d="M104.781 11.2305C105.223 14.3276 105.444 16.8716 105.444 18.8626C105.444 21.4288 104.902 23.453 103.818 24.9352C102.757 26.4174 101.307 27.1585 99.4713 27.1585C98.0334 27.1585 96.8277 26.9373 95.8544 26.4948C94.881 26.0303 94.2062 25.444 93.8302 24.7361C93.432 25.4883 92.8125 26.0856 91.9719 26.528C91.1313 26.9483 90.2021 27.1585 89.1845 27.1585C87.9899 27.1585 86.9944 26.9373 86.198 26.4948C85.4016 26.0303 84.8817 25.3998 84.6384 24.6034C84.1074 25.5104 83.3221 26.163 82.2824 26.5612C81.2647 26.9594 79.86 27.1585 78.0681 27.1585C77.9575 27.1585 77.8468 26.9041 77.7362 26.3953C77.6256 25.8643 77.5703 25.1232 77.5703 24.172C77.5703 22.6677 77.703 21.6279 77.9685 21.0528C78.2119 20.4776 78.4663 20.19 78.7317 20.19C80.1918 20.19 81.2758 19.9909 81.9837 19.5927C82.6916 19.1945 83.0456 18.5087 83.0456 17.5353V15.2125L87.3594 14.8806V17.2035C87.3594 19.1945 88.1337 20.19 89.6822 20.19C90.4344 20.19 91.0096 19.9577 91.4078 19.4931C91.806 19.0286 92.0051 18.376 92.0051 17.5353V15.5443L96.3189 15.2125V17.2035C96.3189 18.199 96.5955 18.9511 97.1485 19.4599C97.7237 19.9466 98.5533 20.19 99.6373 20.19C100.19 20.19 100.467 19.9688 100.467 19.5263C100.467 18.9954 100.378 18.1326 100.201 16.938C100.024 15.7213 99.7811 14.3165 99.4713 12.7237L104.781 11.2305Z" fill="black"/>
<path d="M78.0657 27.1578C76.5614 27.1578 75.2894 26.9034 74.2496 26.3946C73.232 25.8636 72.5573 25.1447 72.2255 24.2376C71.7166 25.1447 70.8428 25.8636 69.604 26.3946C68.3651 26.9034 66.8166 27.1578 64.9583 27.1578H64.2946C64.184 27.1578 64.0734 26.9034 63.9628 26.3946C63.8522 25.8636 63.7969 25.1225 63.7969 24.1713C63.7969 22.667 63.9296 21.6272 64.1951 21.052C64.4384 20.4769 64.6928 20.1893 64.9583 20.1893H65.622C67.5687 20.1893 68.9071 19.8796 69.6372 19.2601C70.3893 18.6407 70.7654 17.7337 70.7654 16.5391V14.2163L75.0792 13.8844V16.3732C75.0792 17.7448 75.3668 18.7292 75.942 19.3265C76.5393 19.9017 77.4684 20.1893 78.7294 20.1893L78.0657 27.1578ZM70.4336 6.75H70.7654H76.2406V11.2298H70.7654H70.4336H64.9583V6.75H70.4336Z" fill="black"/>
<path d="M62.8752 27.1622C62.2116 29.8832 60.6409 31.9295 58.1632 33.3011C56.6589 34.1197 54.8117 34.7833 52.6216 35.2921C50.4315 35.8231 47.7989 36.2102 44.7239 36.4536C44.4363 35.0156 44.0492 32.9693 43.5625 30.3146C48.8276 29.9607 52.6437 29.4629 55.0108 28.8214C57.4 28.1798 58.7162 27.4055 58.9596 26.4985C57.3225 26.7198 55.6191 26.8304 53.8494 26.8304C52.1238 26.8304 50.8075 26.3658 49.9005 25.4367C48.9935 24.5075 48.54 23.2023 48.54 21.521C48.54 19.7291 48.8497 18.0257 49.4691 16.4108C50.1107 14.7737 50.9845 13.4464 52.0906 12.4288C53.1967 11.4112 54.4467 10.9023 55.8404 10.9023C57.7429 10.9023 59.3467 11.7098 60.6519 13.3247C61.9572 14.9175 62.7867 17.2072 63.1407 20.1937H64.9658L64.3021 27.1622H62.8752ZM52.6879 19.0323C52.6879 19.4747 52.8428 19.8066 53.1525 20.0278C53.4843 20.249 54.0485 20.3596 54.8449 20.3596L58.4287 20.2932C57.8314 17.904 56.6921 16.7094 55.0108 16.7094C54.3913 16.7094 53.8494 16.9638 53.3848 17.4727C52.9202 17.9815 52.6879 18.5013 52.6879 19.0323Z" fill="black"/>
<path d="M39.7402 10.4023C40.979 10.4023 41.9745 10.7452 42.7267 11.431C43.4788 12.0947 44.0319 13.1344 44.3858 14.5503C44.5628 15.2361 44.7177 16.0878 44.8504 17.1054C44.9831 18.1009 45.0495 18.9637 45.0495 19.6937C45.0495 21.0431 44.7951 22.3152 44.2863 23.5098C43.7775 24.7044 43.1027 25.6667 42.2621 26.3967C41.4436 27.1268 40.6029 27.4918 39.7402 27.4918C38.3022 27.4918 36.8643 27.16 35.4263 26.4963C33.9884 25.8326 32.9929 25.0915 32.4398 24.273C31.6434 25.3349 30.7917 26.087 29.8847 26.5295C28.9777 26.9498 28.0043 27.16 26.9645 27.16C26.8539 27.16 26.7433 26.9055 26.6327 26.3967C26.5221 25.8658 26.4668 25.1247 26.4668 24.1734C26.4668 22.6691 26.5995 21.6294 26.865 21.0542C27.1083 20.479 27.3627 20.1914 27.6282 20.1914C28.314 20.1914 28.8671 20.114 29.2874 19.9592C29.7298 19.7822 30.128 19.4835 30.482 19.0632C30.8581 18.6208 31.2895 17.946 31.7761 17.039C32.7495 15.2692 33.6123 13.9198 34.3644 12.9906C35.1166 12.0394 35.9019 11.3757 36.7205 10.9996C37.5611 10.6014 38.5677 10.4023 39.7402 10.4023ZM35.3268 18.6318C35.5701 19.0521 36.2338 19.4725 37.3178 19.8928C38.4018 20.3131 39.3751 20.5233 40.2379 20.5233C40.5476 20.5233 40.7025 20.3574 40.7025 20.0255C40.7025 19.6494 40.6472 19.1849 40.5366 18.6318C40.4481 18.0566 40.3485 17.581 40.2379 17.2049C39.9946 16.4307 39.5521 16.0435 38.9106 16.0435C38.3354 16.0435 37.8598 16.1099 37.4837 16.2426C37.1076 16.3754 36.7536 16.6298 36.4218 17.0058C36.1121 17.3598 35.7471 17.9018 35.3268 18.6318Z" fill="black"/>
<path d="M25.6411 27.1604C25.6411 28.3107 25.3645 29.4058 24.8115 30.4455C24.2805 31.4853 23.5063 32.4365 22.4886 33.2993C21.3162 34.3169 19.6238 35.1465 17.4116 35.7881C15.1993 36.4517 12.9097 36.7836 10.5426 36.7836C7.04729 36.7836 4.42581 36.0646 2.67815 34.6267C0.952612 33.2108 0.0898438 31.0539 0.0898438 28.1559C0.0898438 25.5012 0.753512 22.017 2.08085 17.7031L6.22877 18.8645C5.80845 20.4573 5.5098 21.7515 5.33282 22.747C5.15584 23.7204 5.06735 24.5831 5.06735 25.3353C5.06735 26.7954 5.58722 27.9015 6.62697 28.6536C7.68884 29.4279 9.38119 29.8151 11.704 29.8151C13.4074 29.8151 14.956 29.6823 16.3497 29.4169C17.7434 29.1735 18.8385 28.8638 19.6349 28.4877C20.4313 28.1116 20.8295 27.7798 20.8295 27.4922C20.8295 27.3152 20.6193 27.1604 20.199 27.0277C19.7787 26.8728 19.0044 26.7069 17.8761 26.5299C16.7479 26.3529 15.0777 26.1206 12.8654 25.8331L14.0269 20.026C16.4603 20.1366 20.2764 20.1919 25.4751 20.1919H27.6321L26.9684 27.1604H25.6411Z" fill="black"/>
</svg>
