<svg width="25" height="24" viewBox="0 0 25 24" fill="none" xmlns="http://www.w3.org/2000/svg">
<path d="M13.55 16.2522H11.67C10.34 16.2522 9.25 15.1322 9.25 13.7522C9.25 13.3422 9.59 13.0022 10 13.0022C10.41 13.0022 10.75 13.3422 10.75 13.7522C10.75 14.3022 11.16 14.7522 11.67 14.7522H13.55C13.94 14.7522 14.25 14.4022 14.25 13.9722C14.25 13.4322 14.1 13.3522 13.76 13.2322L10.75 12.1822C10.11 11.9522 9.25 11.4922 9.25 10.0222C9.25 8.77219 10.24 7.74219 11.45 7.74219H13.33C14.66 7.74219 15.75 8.86219 15.75 10.2422C15.75 10.6522 15.41 10.9922 15 10.9922C14.59 10.9922 14.25 10.6522 14.25 10.2422C14.25 9.69219 13.84 9.24219 13.33 9.24219H11.45C11.06 9.24219 10.75 9.59219 10.75 10.0222C10.75 10.5622 10.9 10.6422 11.24 10.7622L14.25 11.8122C14.89 12.0422 15.75 12.5022 15.75 13.9722C15.75 15.2322 14.76 16.2522 13.55 16.2522Z" fill="#E5C1C4"/>
<path d="M12.5 17.25C12.09 17.25 11.75 16.91 11.75 16.5V7.5C11.75 7.09 12.09 6.75 12.5 6.75C12.91 6.75 13.25 7.09 13.25 7.5V16.5C13.25 16.91 12.91 17.25 12.5 17.25Z" fill="#E5C1C4"/>
<path d="M12.5 22.75C6.57 22.75 1.75 17.93 1.75 12C1.75 6.07 6.57 1.25 12.5 1.25C12.91 1.25 13.25 1.59 13.25 2C13.25 2.41 12.91 2.75 12.5 2.75C7.4 2.75 3.25 6.9 3.25 12C3.25 17.1 7.4 21.25 12.5 21.25C17.6 21.25 21.75 17.1 21.75 12C21.75 11.59 22.09 11.25 22.5 11.25C22.91 11.25 23.25 11.59 23.25 12C23.25 17.93 18.43 22.75 12.5 22.75Z" fill="#E5C1C4"/>
<path d="M22.5 6.75C22.09 6.75 21.75 6.41 21.75 6V2.75H18.5C18.09 2.75 17.75 2.41 17.75 2C17.75 1.59 18.09 1.25 18.5 1.25H22.5C22.91 1.25 23.25 1.59 23.25 2V6C23.25 6.41 22.91 6.75 22.5 6.75Z" fill="#E5C1C4"/>
<path d="M17.4995 7.75141C17.3095 7.75141 17.1195 7.6814 16.9695 7.5314C16.6795 7.2414 16.6795 6.76141 16.9695 6.47141L21.9695 1.47141C22.2595 1.18141 22.7395 1.18141 23.0295 1.47141C23.3195 1.76141 23.3195 2.2414 23.0295 2.5314L18.0295 7.5314C17.8795 7.6814 17.6895 7.75141 17.4995 7.75141Z" fill="#E5C1C4"/>
</svg>
